<?xml version="1.0" encoding="utf-8"?><svg xmlns="http://www.w3.org/2000/svg" xmlns:xlink="http://www.w3.org/1999/xlink" width="2200" height="372"><defs><style type="text/css"><![CDATA[
    ]]></style>
    
  </defs><svg xmlns="http://www.w3.org/2000/svg" id="logo-w" x="0" y="5" width="500" height="338" viewBox="0 0 41.65 28.14"><polygon points="30.6 0 30.6 5.15 34.26 5.15 30.28 20.11 25.35 0 20.27 0 14.86 20.27 10.97 5.15 14.94 5.15 14.94 0 0 0 0 5.15 3.26 5.15 8.98 28.14 17.01 28.14 20.82 13.75 24.48 28.14 32.51 28.14 38.55 5.15 41.65 5.15 41.65 0 30.6 0" style="fill: #4a2e84; stroke-width: 0" />
    
  </svg><rect id="black-line" x="550" y="184" width="1650" height="4" style="stroke-width: 0" /><svg xmlns="http://www.w3.org/2000/svg" id="secondary" x="550" y="259" width="1650" height="111" viewBox="0 0 143.86 9.69"><path d="M139.16,6.67V1.33l3.71,5.96h.36V.77l.62-.62h-1.86l.62.62v4.54l-3.22-5.15h-1.47l.6.62v5.9l-.6.62h1.86l-.62-.62ZM133.65,6.9c-1.43,0-1.92-1.7-1.92-3.18s.5-3.18,1.92-3.18,1.93,1.71,1.93,3.18-.5,3.18-1.93,3.18M130.8,3.72c0,1.81,1.03,3.72,2.85,3.72s2.87-1.91,2.87-3.72-1.03-3.72-2.87-3.72-2.85,1.91-2.85,3.72M127.57,6.72V.69h1.35l.76.76V.16h-5.02v1.29l.77-.76h1.34v6.04l-.55.57h1.91l-.57-.57ZM122.29,4.05v2.3c-.17.17-.51.51-1.17.51-1.58,0-2.38-1.6-2.38-3.13s1-3.13,2.38-3.13c.36,0,.63.08.87.34l.79.78V.47c-.42-.22-.85-.41-1.66-.41-1.95,0-3.31,1.74-3.31,3.66s1.37,3.67,3.31,3.67c1.1,0,1.57-.27,1.96-.52v-2.82l.56-.57h-1.91l.57.57ZM111.71,6.67V1.33l3.75,5.96h.32V.77l.62-.62h-1.86l.62.62v4.54l-3.22-5.15h-1.48l.6.62v5.9l-.6.62h1.86l-.62-.62ZM106.6.16l.57.57v6l-.57.57h1.92l-.57-.57V.72l.57-.57h-1.92ZM100.26,3.71h3v3.01l-.57.57h1.92l-.57-.57V.72l.57-.57h-1.92l.57.57v2.45h-3V.72l.57-.57h-1.91l.56.57v6l-.56.57h1.91l-.57-.57v-3.01ZM97.05,5.31c0-.7-.33-1.14-.67-1.37l-1.45-1.05c-.52-.38-.79-.86-.79-1.22,0-.75.64-1.02,1.03-1.02.2,0,.35.08.46.08l.63.68.67-.99-1.41-.27c-.1-.02-.16-.04-.34-.04-1.25,0-1.81,1.06-1.81,1.75,0,.54.28,1.16.92,1.63l1.46,1.05c.4.28.51.69.51,1.04,0,.61-.37,1.26-1.18,1.26-.19,0-.36-.04-.5-.1l-.68-.8-.62,1.11,1.37.27s.23.05.42.05c.86,0,1.98-.73,1.98-2.08M89.06,1.74l.98,2.95h-2l1.02-2.95ZM87.35,6.73l.52-1.51h2.36l.5,1.51-.56.56h2.02l-.57-.58-2.23-6.55h-.36l-2.26,6.55-.58.58h1.72l-.56-.56ZM79.76,7.29l1.63-5.16,1.58,5.16h.36l2.07-6.57.58-.57h-1.72l.56.55-1.51,4.94-1.46-4.94.56-.55h-2.02l.57.57.15.47-1.37,4.45-1.46-4.94.56-.55h-2.02l.58.57,2.01,6.57h.36ZM69.19,3.01l-.27.26.03.1h.83c-.13.9-.25,1.69-.44,2.95-.27,1.88-.5,2.54-.69,2.7-.06.06-.16.09-.25.09-.12,0-.31-.09-.44-.15-.12-.06-.22.01-.28.07-.08.09-.17.23-.17.34,0,.2.26.3.43.3.19,0,.67-.16,1.1-.69.34-.42.8-1.4,1.2-3.67.07-.42.15-.84.32-1.95l1.02-.1.22-.26h-1.19c.3-1.86.55-2.42.98-2.42.3,0,.55.12.77.33.07.07.18.07.28,0,.08-.07.2-.23.2-.37.01-.2-.26-.42-.6-.42-.58,0-1.2.34-1.62.84-.39.47-.65,1.24-.79,2.05h-.65ZM64.67,5.65c0-1.49.75-2.29,1.07-2.42.09-.04.23-.08.33-.08.5,0,.79.38.79,1.15.02,1.31-.66,2.49-1.09,2.63-.08.03-.21.07-.31.07-.56,0-.79-.6-.79-1.36M66.38,2.77c-.26,0-.67.12-1.08.36-.69.41-1.45,1.35-1.45,2.75,0,.71.33,1.49,1.27,1.49.44,0,1.07-.29,1.5-.67.66-.6,1.06-1.64,1.06-2.53,0-.83-.44-1.39-1.29-1.39M54.74.72l1.8,3.25v2.74l-.57.57h1.92l-.57-.57v-2.74l1.84-3.24.59-.58h-1.77l.56.55-1.5,2.67-1.43-2.67.56-.55h-2.02l.58.57ZM50.98,6.72V.69h1.35l.76.76V.16h-5.02v1.29l.77-.76h1.34v6.04l-.56.57h1.91l-.57-.57ZM44.51.16l.57.57v6l-.57.57h1.92l-.57-.57V.72l.57-.57h-1.92ZM42.44,5.31c0-.7-.33-1.14-.66-1.37l-1.45-1.05c-.52-.38-.79-.86-.79-1.22,0-.75.64-1.02,1.03-1.02.21,0,.35.08.46.08l.63.68.67-.99-1.42-.27c-.1-.02-.16-.04-.34-.04-1.24,0-1.81,1.06-1.81,1.75,0,.54.28,1.16.92,1.63l1.46,1.05c.4.28.51.69.51,1.04,0,.61-.37,1.26-1.18,1.26-.19,0-.36-.04-.5-.1l-.68-.8-.62,1.11,1.37.27s.23.05.42.05c.86,0,1.98-.73,1.98-2.08M33.28.69h.87c.76,0,1.37.65,1.37,1.43s-.62,1.32-1.37,1.32h-.87V.69ZM33.28,6.72v-2.76h1.08l1.73,3.33h1.19l-.56-.57-1.6-2.93c.8-.24,1.34-.99,1.34-1.67,0-1.21-1.12-1.97-2.31-1.97h-2.21l.56.57v6l-.56.57h1.91l-.57-.57ZM30.07,7.29v-1.31l-.76.78h-2.16v-3h1.61l.57.57v-1.67l-.57.57h-1.61V.69h2.16l.76.76V.16h-4.27l.56.57v6l-.56.57h4.27ZM20.82.16h-2.02l.58.57,2.01,6.57h.36l2.07-6.57.58-.57h-1.72l.56.55-1.51,4.94-1.46-4.94.56-.55ZM15.29.16l.57.57v6l-.57.57h1.92l-.57-.57V.72l.57-.57h-1.92ZM8.65,6.67V1.33l3.83,5.96h.25V.77l.62-.62h-1.86l.62.62v4.54L8.88.16h-1.48l.6.62v5.9l-.6.62h1.86l-.62-.62ZM.62,5.38c0,1.17.99,2.07,2.21,2.07s2.31-.86,2.31-2.07V.77l.6-.62h-1.86l.62.62v4.61c0,.82-.65,1.47-1.48,1.47s-1.57-.64-1.57-1.47V.77l.62-.62H0l.62.62v4.61Z" style="fill: #000000; stroke-width: 0" />
    
  </svg><svg xmlns="http://www.w3.org/2000/svg" version="1.1" width="1540.9" x="550" y="-70" height="212.4"><path d="M80.256,95.912l-12.312-12.312l-18.088,0l0,89.528l9.272,9.272l-34.96,0l9.272-9.272l0-89.528l-18.088,0l-12.312,12.312l0-21.128l77.216,0l0,21.128z M169.138,177.688c-5.32,3.192-12.16,6.232-27.208,6.232c-27.816,0-45.752-27.208-45.752-55.328c0-28.576,18.392-55.328,45.752-55.328c13.984,0,21.432,3.496,27.208,6.384l0,22.04l-14.744-14.744c-3.496-3.648-7.296-5.168-12.464-5.168c-20.52,0-25.992,25.84-25.992,46.816s6.232,46.816,25.992,46.816c5.168,0,8.968-1.52,12.464-5.168l14.744-14.744l0,22.192z M249.356,150.176c0,17.328-10.488,33.44-34.808,33.44c-3.192,0-6.84-0.304-9.424-0.76l-22.344-3.952l10.792-19.76l11.856,14.896c2.432,1.52,6.84,2.28,10.336,2.28c14.288,0,18.544-12.312,18.544-19c0-7.752-4.864-12.616-9.728-15.808l-22.04-14.44c-9.12-5.928-14.44-14.592-14.44-24.624c0-19.608,16.112-28.88,30.704-28.88c4.864,0,9.272,0.912,13.376,1.672l16.416,3.04l-10.792,18.24l-9.728-11.856c-2.128-1.976-4.712-3.192-8.36-3.192c-10.336,0-16.264,7.904-16.264,14.896c0,5.928,2.888,11.4,11.096,16.872l19,12.616c8.36,5.624,15.808,12.768,15.808,24.32z M330.182,150.176c0,17.328-10.488,33.44-34.808,33.44c-3.192,0-6.84-0.304-9.424-0.76l-22.344-3.952l10.792-19.76l11.856,14.896c2.432,1.52,6.84,2.28,10.336,2.28c14.288,0,18.544-12.312,18.544-19c0-7.752-4.864-12.616-9.728-15.808l-22.04-14.44c-9.12-5.928-14.44-14.592-14.44-24.624c0-19.608,16.112-28.88,30.704-28.88c4.864,0,9.272,0.912,13.376,1.672l16.416,3.04l-10.792,18.24l-9.728-11.856c-2.128-1.976-4.712-3.192-8.36-3.192c-10.336,0-16.264,7.904-16.264,14.896c0,5.928,2.888,11.4,11.096,16.872l19,12.616c8.36,5.624,15.808,12.768,15.808,24.32z  M455.202,182.4l-11.4,0l0,30.4l-16.416,0l0-30.4l-41.04,0l0-4.408l52.744-74.328l4.712,0l0,69.92l11.4,0l0,8.816z M427.386,173.584l0-40.28l-28.728,40.28l28.728,0z M517.788,116.28c16.264,0,29.64,13.224,29.64,32.072c0,23.864-18.392,36.024-34.96,36.024c-24.32,0-37.24-17.936-37.24-43.016c0-30.248,21.584-67.64,57.456-68.552l1.824,6.84c-16.264,1.064-32.68,10.944-39.064,46.056c5.928-6.536,12.92-9.424,22.344-9.424z M529.492,150.328c0-10.944-1.368-25.84-17.328-25.84c-8.056,0-18.544,6.536-18.544,22.496c0,17.176,5.168,30.856,18.848,30.856c10.488,0,17.024-10.488,17.024-27.512z M646.342,143.792c0,23.408-17.784,40.584-39.672,40.584s-39.672-17.176-39.672-40.584s17.784-40.584,39.672-40.584s39.672,17.176,39.672,40.584z M627.342,143.792c0-17.024-5.928-34.048-20.672-34.048s-20.672,17.024-20.672,34.048s5.928,34.048,20.672,34.048s20.672-17.024,20.672-34.048z  M796.442,182.4l-36.48,0l9.12-9.12l-6.84-21.28l-35.416,0l-7.144,21.28l9.12,9.12l-28.88,0l9.424-9.424l34.2-98.192l10.032,0l33.44,98.192z M759.202,143.184l-14.288-43.776l-15.048,43.776l29.336,0z M895.356,74.784l-9.272,9.272l0,68.096c0,20.976-17.176,32.528-35.568,32.528s-35.568-11.704-35.568-32.528l0-68.096l-9.272-9.272l34.96,0l-9.272,9.272l0,68.096c0,14.288,10.184,22.952,22.192,22.952s22.192-8.664,22.192-22.952l0-68.096l-9.272-9.272l28.88,0z M986.366,95.912l-12.312-12.312l-18.088,0l0,89.528l9.272,9.272l-34.96,0l9.272-9.272l0-89.528l-18.088,0l-12.312,12.312l0-21.128l77.216,0l0,21.128z M1089.84,74.784l-9.272,9.272l0,68.096c0,20.976-17.176,32.528-35.568,32.528s-35.568-11.704-35.568-32.528l0-68.096l-9.272-9.272l34.96,0l-9.272,9.272l0,68.096c0,14.288,10.184,22.952,22.192,22.952s22.192-8.664,22.192-22.952l0-68.096l-9.272-9.272l28.88,0z M1218.394,182.4l-34.96,0l9.272-9.272l0-80.408l-33.592,59.736l-33.592-59.736l0,80.408l9.272,9.272l-28.88,0l9.272-9.272l0-89.072l-9.272-9.272l28.576,0l29.336,52.288l29.184-52.288l25.384,0l-9.272,9.272l0,89.072z M1326.428,74.784l-9.272,9.272l0,107.16l-62.32-96.824l0,78.736l9.272,9.272l-28.88,0l9.272-9.272l0-89.072l-9.272-9.272l26.904,0l44.688,70.072l0-60.8l-9.272-9.272l28.88,0z  M1444.456,182.4l-60.192,0l0-8.512l32.376-30.552c4.104-3.952,7.904-9.272,7.904-15.808c0-6.232-3.8-13.224-13.984-13.224c-5.776,0-14.592,3.8-20.824,8.208l-3.496-5.624c7.752-5.928,21.432-13.68,32.224-13.68c10.944,0,23.56,5.472,23.56,20.672c0,10.032-6.08,15.96-11.856,20.672l-32.984,25.232l38.76,0l8.512-8.512l0,21.128z M1527.714,182.4l-11.4,0l0,30.4l-16.416,0l0-30.4l-41.04,0l0-4.408l52.744-74.328l4.712,0l0,69.92l11.4,0l0,8.816z M1499.898,173.584l0-40.28l-28.728,40.28l28.728,0z" style="fill: #000000" /></svg></svg>